<?xml version="1.0" encoding="UTF-8" standalone="no"?>
<!-- Created with Inkscape (http://www.inkscape.org/) -->

<svg
   width="512"
   height="512"
   viewBox="0 0 135.46667 135.46667"
   version="1.1"
   id="svg1"
   inkscape:version="1.3.2 (091e20e, 2023-11-25, custom)"
   sodipodi:docname="icon.svg"
   inkscape:export-filename="icon.png"
   inkscape:export-xdpi="96"
   inkscape:export-ydpi="96"
   xmlns:inkscape="http://www.inkscape.org/namespaces/inkscape"
   xmlns:sodipodi="http://sodipodi.sourceforge.net/DTD/sodipodi-0.dtd"
   xmlns="http://www.w3.org/2000/svg"
   xmlns:svg="http://www.w3.org/2000/svg">
  <sodipodi:namedview
     id="namedview1"
     pagecolor="#ffffff"
     bordercolor="#000000"
     borderopacity="0.25"
     inkscape:showpageshadow="2"
     inkscape:pageopacity="0.0"
     inkscape:pagecheckerboard="0"
     inkscape:deskcolor="#d1d1d1"
     inkscape:document-units="px"
     showgrid="false"
     inkscape:zoom="1.5878906"
     inkscape:cx="256.94465"
     inkscape:cy="272.37392"
     inkscape:window-width="1920"
     inkscape:window-height="1009"
     inkscape:window-x="-8"
     inkscape:window-y="-8"
     inkscape:window-maximized="1"
     inkscape:current-layer="layer1">
    <inkscape:grid
       id="grid2"
       units="mm"
       originx="0"
       originy="0"
       spacingx="1"
       spacingy="1"
       empcolor="#0099e5"
       empopacity="0.30196078"
       color="#0099e5"
       opacity="0.14901961"
       empspacing="5"
       dotted="false"
       gridanglex="30"
       gridanglez="30"
       visible="false" />
  </sodipodi:namedview>
  <defs
     id="defs1" />
  <g
     inkscape:label="Layer 1"
     inkscape:groupmode="layer"
     id="layer1">
    <g
       id="g6"
       transform="rotate(-45,67.733337,67.733337)">
      <path
         id="path2"
         style="fill:#49bcff;fill-opacity:1;stroke-width:0.477447"
         d="M 30.417266,80.962502 A 39.6875,39.6875 0 0 0 67.733335,107.42084 39.6875,39.6875 0 0 0 105.0494,80.962502 Z" />
      <path
         id="path2-1"
         style="fill:#2ca1ff;fill-opacity:1;stroke-width:0.477447"
         d="m 30.417266,54.504168 a 39.6875,39.6875 0 0 0 -2.371432,13.229167 39.6875,39.6875 0 0 0 2.371432,13.229167 H 105.0494 a 39.6875,39.6875 0 0 0 2.37144,-13.229167 39.6875,39.6875 0 0 0 -2.27325,-13.229167 z" />
      <path
         id="rect3-1-4"
         style="fill:#188bff;fill-opacity:1;stroke-width:0.26303"
         d="M 67.733335,-28.045834 A 39.6875,39.6875 0 0 1 30.417266,-54.504168 h 74.730324 a 39.6875,39.6875 0 0 1 -37.414255,26.458334 z"
         transform="scale(1,-1)" />
    </g>
  </g>
</svg>
