<svg xmlns="http://www.w3.org/2000/svg" width="148" height="148" viewBox="0 0 148 148"><path d="M73-5452a74.083,74.083,0,0,1-74-74,74.085,74.085,0,0,1,74-74,74.085,74.085,0,0,1,74,74A74.082,74.082,0,0,1,73-5452ZM49.773-5585.654A63.63,63.63,0,0,0,9-5526a64.072,64.072,0,0,0,64,64,63.777,63.777,0,0,0,59.305-39.894c-.2.5-.408.982-.61,1.444-2.85.758-6.08,1.815-9.2,2.837l-.014,0-.02.005-.029.009c-3.345,1.093-6.5,2.125-9.192,2.81a73.666,73.666,0,0,1-16.112,2.038c-4.618,0-7.846-.686-9.595-2.038a10.455,10.455,0,0,1-3.657-5.577,18.892,18.892,0,0,1-.45-7.079,37.771,37.771,0,0,1,4.107-13.049c1.893-3.5,1.643-7.749-.686-11.656-2.735-4.589-7.6-7.672-12.116-7.672a11.224,11.224,0,0,0-2.848,1.1h-.005c-3.238,1.49-8.658,3.984-14.336,3.984a15.835,15.835,0,0,1-9.982-3.338c-3.181-2.481-4.778-4.8-4.881-7.082-.145-3.209,2.688-5.864,5.429-8.432l0,0a39.7,39.7,0,0,0,2.984-2.995c4.989-5.819,6.863-11.256,5.73-16.621-.991-4.692-4.032-8.588-6.974-12.355l-.077-.1h0ZM121.5-5562a12.514,12.514,0,0,0-12.5,12.5,12.514,12.514,0,0,0,12.5,12.5,12.514,12.514,0,0,0,12.5-12.5A12.514,12.514,0,0,0,121.5-5562Zm-18-3a5.506,5.506,0,0,0-5.5,5.5,5.505,5.505,0,0,0,5.5,5.5,5.506,5.506,0,0,0,5.5-5.5A5.507,5.507,0,0,0,103.5-5565Z" transform="translate(1.001 5600)" fill="#0060c2"/></svg>