<?xml version="1.0" encoding="UTF-8" standalone="no"?>
<!-- Created with Inkscape (http://www.inkscape.org/) -->

<svg
   width="1450"
   height="512"
   viewBox="0 0 383.64585 135.46667"
   version="1.1"
   id="svg1"
   inkscape:version="1.3.2 (091e20e, 2023-11-25, custom)"
   sodipodi:docname="banner.svg"
   inkscape:export-filename="banner.png"
   inkscape:export-xdpi="96"
   inkscape:export-ydpi="96"
   xml:space="preserve"
   xmlns:inkscape="http://www.inkscape.org/namespaces/inkscape"
   xmlns:sodipodi="http://sodipodi.sourceforge.net/DTD/sodipodi-0.dtd"
   xmlns="http://www.w3.org/2000/svg"
   xmlns:svg="http://www.w3.org/2000/svg"><sodipodi:namedview
     id="namedview1"
     pagecolor="#ffffff"
     bordercolor="#000000"
     borderopacity="0.25"
     inkscape:showpageshadow="2"
     inkscape:pageopacity="0.0"
     inkscape:pagecheckerboard="0"
     inkscape:deskcolor="#d1d1d1"
     inkscape:document-units="px"
     showgrid="false"
     inkscape:zoom="0.39697265"
     inkscape:cx="884.1919"
     inkscape:cy="195.22756"
     inkscape:window-width="1920"
     inkscape:window-height="1009"
     inkscape:window-x="-8"
     inkscape:window-y="-8"
     inkscape:window-maximized="1"
     inkscape:current-layer="layer1"><inkscape:grid
       id="grid2"
       units="mm"
       originx="0"
       originy="0"
       spacingx="1"
       spacingy="1"
       empcolor="#0099e5"
       empopacity="0.30196078"
       color="#0099e5"
       opacity="0.14901961"
       empspacing="5"
       dotted="false"
       gridanglex="30"
       gridanglez="30"
       visible="false" /></sodipodi:namedview><defs
     id="defs1" /><g
     inkscape:label="Layer 1"
     inkscape:groupmode="layer"
     id="layer1"><text
       xml:space="preserve"
       style="font-style:normal;font-variant:normal;font-weight:normal;font-stretch:normal;font-size:56.4444px;font-family:Rubik;-inkscape-font-specification:Rubik;fill:#e0e0e0;stroke-width:2.64583"
       x="126.90073"
       y="88.081543"
       id="text1"><tspan
         sodipodi:role="line"
         id="tspan1"
         style="font-style:normal;font-variant:normal;font-weight:600;font-stretch:normal;font-size:56.4444px;font-family:Rubik;-inkscape-font-specification:'Rubik Semi-Bold';fill:#202020;fill-opacity:1;stroke-width:2.64583"
         x="126.90073"
         y="88.081543">Lunorix</tspan></text><path
       d="M 67.096769,107.42084 A 39.732011,39.732011 0 0 1 27.409268,67.733332 39.733083,39.733083 0 0 1 67.096769,28.045831 39.733083,39.733083 0 0 1 106.78427,67.733332 39.731474,39.731474 0 0 1 67.096769,107.42084 Z M 54.639716,35.739856 A 34.125883,34.125883 0 0 0 32.772436,67.733332 34.362935,34.362935 0 0 0 67.096769,102.05765 34.204722,34.204722 0 0 0 98.903067,80.66181 c -0.10721,0.268154 -0.21881,0.526662 -0.32714,0.774446 -1.5285,0.406519 -3.26082,0.973397 -4.93413,1.521526 h -0.008 l -0.0102,0.0021 -0.0162,0.004 c -1.79398,0.586196 -3.48606,1.139676 -4.92983,1.507054 a 39.508365,39.508365 0 0 1 -8.641158,1.093013 c -2.476702,0 -4.207945,-0.367925 -5.145952,-1.093013 a 5.6071995,5.6071995 0 0 1 -1.961331,-2.99104 10.13211,10.13211 0 0 1 -0.241338,-3.796601 20.257248,20.257248 0 0 1 2.202669,-6.998411 c 1.015236,-1.877107 0.881169,-4.155912 -0.367925,-6.25131 -1.466819,-2.461155 -4.076007,-4.114621 -6.498021,-4.114621 a 6.0196276,6.0196276 0 0 0 -1.527423,0.589945 h -0.0021 c -1.736593,0.799114 -4.643451,2.13669 -7.688653,2.13669 a 8.4925877,8.4925877 0 0 1 -5.353433,-1.790256 c -1.706026,-1.330602 -2.562527,-2.574323 -2.617761,-3.798201 -0.07785,-1.721048 1.441619,-3.144973 2.911661,-4.522236 v 0 A 21.291805,21.291805 0 0 0 55.3472,51.328638 c 2.675675,-3.12083 3.680736,-6.036789 3.073095,-8.914134 -0.531486,-2.516412 -2.162432,-4.605891 -3.740292,-6.626209 l -0.04135,-0.05372 v 0 z m 38.468451,12.686046 a 6.7114772,6.7114772 0 0 0 -6.703968,6.703965 6.7114772,6.7114772 0 0 0 6.703968,6.703965 6.7114772,6.7114772 0 0 0 6.70396,-6.703965 6.7114772,6.7114772 0 0 0 -6.70396,-6.703965 z M 83.45445,46.81695 a 2.9529642,2.9529642 0 0 0 -2.949751,2.949748 2.9524279,2.9524279 0 0 0 2.949751,2.94975 2.9529642,2.9529642 0 0 0 2.949749,-2.94975 2.9535006,2.9535006 0 0 0 -2.949749,-2.949748 z"
       fill="#0060c2"
       id="path1"
       style="stroke-width:0.536316" /></g></svg>
